<svg width="706" height="230" viewBox="0 0 706 230" fill="none" xmlns="http://www.w3.org/2000/svg">
<path d="M466.822 202.367H440.173V165.06C426.182 185.556 408.692 201.504 387.705 212.903C366.718 224.303 344.232 230.003 320.247 230.003C288.489 230.003 259.84 220.388 234.301 201.158C208.761 181.928 190.994 156.653 181 125.333L181.355 125.248H209.208C217.884 147.52 231.744 165.627 250.79 179.568C271.555 194.768 294.707 202.367 320.247 202.367C340.235 202.367 358.945 197.473 376.379 187.686C393.812 177.898 408.192 164.369 419.519 147.097H386.872V119.461H466.822V202.367ZM29.9775 0C35.3816 0 40.327 1.37689 44.8135 4.12988C49.4019 6.78099 53.0217 10.4008 55.6729 14.9893C58.4259 19.4757 59.8027 24.5228 59.8027 30.1309V42.6729C59.8027 43.0805 59.599 43.2841 59.1914 43.2842H42.0605C41.6529 43.2841 41.4493 43.0805 41.4492 42.6729L41.2959 30.1309C41.2959 26.5623 40.1746 23.6563 37.9316 21.4131C35.6884 19.1698 33.0365 18.0479 29.9775 18.0479C26.8168 18.0479 24.1152 19.2718 21.8721 21.7188C19.6288 24.0639 18.5068 26.868 18.5068 30.1309C18.5068 33.4957 19.2209 36.2997 20.6484 38.543C22.0759 40.7861 24.6757 42.9275 28.4482 44.9668C28.9581 45.2727 29.927 45.8337 31.3545 46.6494C32.884 47.3632 34.5156 48.2294 36.249 49.249C37.9823 50.1666 39.5115 50.9826 40.8369 51.6963C42.2644 52.41 43.1316 52.8693 43.4375 53.0732C48.5357 55.9283 52.5635 59.4464 55.5205 63.627C58.4773 67.7055 59.9561 72.7528 59.9561 78.7686C59.956 84.5806 58.5792 89.8321 55.8262 94.5225C53.1751 99.1108 49.5551 102.781 44.9668 105.534C40.4803 108.185 35.4837 109.511 29.9775 109.511C24.4716 109.511 19.4243 108.135 14.8359 105.382C10.3494 102.527 6.72963 98.8043 3.97656 94.2158C1.32562 89.5255 8.21611e-06 84.3765 0 78.7686V71.7324C0.000150781 71.2229 0.255034 70.9678 0.764648 70.9678H17.8945C18.3023 70.9678 18.5067 71.2229 18.5068 71.7324V78.7686C18.5068 82.1334 19.6288 85.0392 21.8721 87.4863C24.1152 89.8314 26.8168 91.0038 29.9775 91.0039C33.1383 91.0039 35.8408 89.781 38.084 87.334C40.3272 84.8868 41.4492 82.0314 41.4492 78.7686C41.4492 74.9958 39.0018 71.7326 34.1074 68.9795C32.476 68.0618 29.9267 66.6345 26.46 64.6973C22.9932 62.7599 19.7298 60.9248 16.6709 59.1914C11.0629 55.9285 6.88292 51.8494 4.12988 46.9551C1.47878 41.9588 0.15332 36.3508 0.15332 30.1309C0.153328 24.4208 1.52919 19.3224 4.28223 14.8359C7.03527 10.2475 10.6552 6.62766 15.1416 3.97656C19.73 1.32551 24.6755 5.88753e-05 29.9775 0ZM90.1699 1.5293C90.5778 1.5293 90.9353 1.73374 91.2412 2.1416L105.159 22.3301L119.077 2.1416C119.383 1.73374 119.741 1.5293 120.148 1.5293H138.961C139.369 1.52933 139.572 1.73378 139.572 2.1416L139.879 107.217C139.879 107.727 139.674 107.981 139.267 107.981H121.983C121.576 107.981 121.372 107.727 121.372 107.217L121.219 29.2129L105.159 52.4609L89.2529 29.2129L89.0996 107.217C89.0996 107.726 88.8958 107.981 88.4883 107.981H71.2051C70.7972 107.981 70.5928 107.727 70.5928 107.217L70.8984 2.1416C70.8984 1.73374 71.1029 1.5293 71.5107 1.5293H90.1699ZM170.638 1.5293C171.046 1.5293 171.25 1.73374 171.25 2.1416L171.402 107.217C171.402 107.727 171.199 107.981 170.791 107.981H153.508C152.998 107.981 152.743 107.727 152.743 107.217L152.896 2.1416C152.896 1.73374 153.1 1.5293 153.508 1.5293H170.638ZM204.245 1.5293C204.755 1.52943 205.01 1.78448 205.01 2.29395L204.856 89.1689H236.364C236.874 89.1691 237.129 89.424 237.129 89.9336V107.217C237.129 107.726 236.874 107.981 236.364 107.981H186.962C186.554 107.981 186.35 107.727 186.35 107.217L186.503 2.29395C186.503 1.78434 186.758 1.5293 187.268 1.5293H204.245ZM297.002 1.5293C297.41 1.5293 297.613 1.78434 297.613 2.29395V19.4248C297.613 19.8325 297.41 20.0361 297.002 20.0361H265.647V43.8965H297.002C297.41 43.8965 297.613 44.1001 297.613 44.5078L297.767 61.791C297.767 62.1988 297.563 62.4032 297.155 62.4033H265.647V89.1689H297.155C297.563 89.1691 297.767 89.424 297.767 89.9336V107.37C297.767 107.778 297.563 107.981 297.155 107.981H247.753C247.345 107.981 247.141 107.727 247.141 107.217L247.294 2.1416C247.294 1.73381 247.498 1.52937 247.905 1.5293H297.002ZM386.99 1.5293C387.5 1.5293 387.755 1.73374 387.755 2.1416V19.2715C387.755 19.7813 387.551 20.0361 387.144 20.0361H367.107L367.26 107.217C367.26 107.727 367.056 107.981 366.648 107.981H349.365C348.957 107.981 348.754 107.727 348.754 107.217V20.0361H328.87C328.36 20.0361 328.105 19.7813 328.105 19.2715L328.259 2.1416C328.259 1.73376 328.462 1.52932 328.87 1.5293H386.99ZM427.123 1.5293C432.629 1.52933 437.676 2.90616 442.265 5.65918C446.955 8.31028 450.677 11.9301 453.43 16.5186C456.183 21.005 457.56 26.1034 457.56 31.8135C457.56 35.586 456.999 39.0017 455.877 42.0605C454.755 45.0175 453.43 47.5668 451.9 49.708C450.371 51.7473 448.994 53.2772 447.771 54.2969C453.277 60.4148 456.03 67.6032 456.03 75.8623L456.183 107.217C456.183 107.727 455.928 107.981 455.418 107.981H438.135C437.727 107.981 437.523 107.828 437.523 107.522V75.8623C437.523 72.1917 436.198 69.0309 433.547 66.3799C430.998 63.6268 427.836 62.25 424.063 62.25H413.97L413.816 107.217C413.816 107.727 413.612 107.981 413.204 107.981H395.921C395.513 107.981 395.31 107.726 395.31 107.217L395.615 2.1416C395.615 1.73374 395.82 1.5293 396.228 1.5293H427.123ZM505.803 1.5293C506.211 1.5293 506.465 1.73374 506.567 2.1416L524.769 107.217C524.871 107.727 524.666 107.981 524.156 107.981H507.18C506.772 107.981 506.517 107.727 506.415 107.217L504.732 96.0518H483.932L482.249 107.217C482.147 107.726 481.892 107.981 481.484 107.981H464.507C464.099 107.981 463.895 107.727 463.895 107.217L482.86 2.1416C482.962 1.73385 483.217 1.52941 483.625 1.5293H505.803ZM537.663 1.5293C538.071 1.52943 538.326 1.73387 538.428 2.1416L550.97 72.1914L563.205 2.1416C563.307 1.73378 563.562 1.52934 563.97 1.5293H581.1C581.609 1.5293 581.814 1.73374 581.712 2.1416L560.911 107.217C560.809 107.726 560.554 107.981 560.146 107.981H541.64C541.232 107.981 540.977 107.727 540.875 107.217L519.768 2.1416C519.666 1.73374 519.87 1.5293 520.38 1.5293H537.663ZM640.538 1.5293C640.946 1.5293 641.15 1.78434 641.15 2.29395V19.4248C641.15 19.8325 640.946 20.0361 640.538 20.0361H609.184V43.8965H640.538C640.946 43.8965 641.15 44.1001 641.15 44.5078L641.303 61.791C641.303 62.1989 641.099 62.4033 640.691 62.4033H609.184V89.1689H640.691C641.099 89.169 641.303 89.4239 641.303 89.9336V107.37C641.303 107.778 641.099 107.981 640.691 107.981H591.289C590.881 107.981 590.677 107.727 590.677 107.217L590.83 2.1416C590.83 1.73374 591.035 1.5293 591.442 1.5293H640.538ZM672.799 1.5293C673.308 1.52936 673.563 1.78441 673.563 2.29395L673.41 89.1689H704.918C705.428 89.169 705.683 89.4239 705.683 89.9336V107.217C705.683 107.727 705.428 107.981 704.918 107.981H655.516C655.108 107.981 654.903 107.727 654.903 107.217L655.057 2.29395C655.057 1.78436 655.312 1.52931 655.821 1.5293H672.799ZM493.873 36.708L486.99 79.6865H501.673L495.402 36.708L494.484 31.0488L493.873 36.708ZM413.97 43.8965H427.123C430.284 43.8964 433.088 42.724 435.535 40.3789C437.982 38.0337 439.206 35.1783 439.206 31.8135C439.206 28.5507 437.982 25.7465 435.535 23.4014C433.19 21.0562 430.386 19.8838 427.123 19.8838H413.97V43.8965Z" fill="#dc2626"/>
</svg>
